P2
# CREATOR: GIMP PNM Filter Version 1.1
76 65
255
255
255
255
255
255
255
255
255
254
254
255
255
255
255
255
253
254
254
254
253
255
255
254
254
253
252
252
245
254
243
250
252
252
253
254
252
254
253
251
253
250
254
255
251
250
253
253
254
254
254
253
255
255
254
254
254
254
253
254
254
254
255
255
254
255
255
255
255
255
255
255
255
255
255
255
255
255
255
255
255
255
255
255
255
254
255
253
254
255
255
255
255
255
255
255
255
255
255
253
255
254
255
252
244
254
242
195
203
158
160
250
251
254
253
252
254
253
254
254
253
254
253
255
254
254
254
253
255
254
255
255
254
255
254
254
253
255
255
255
255
255
255
255
255
255
255
255
255
255
255
255
255
255
255
255
255
255
255
255
255
255
254
255
253
255
255
255
253
254
254
255
255
255
255
252
254
255
251
253
252
186
12
9
11
12
7
164
253
255
253
255
255
254
254
254
253
254
253
254
254
255
254
254
255
255
254
255
254
254
255
253
255
255
255
255
255
255
255
255
255
255
255
255
255
255
255
255
255
255
255
255
255
255
255
255
255
254
255
254
254
255
255
255
254
250
246
253
254
255
254
254
255
255
254
90
11
9
45
69
59
60
47
110
249
248
254
255
251
250
251
251
243
254
254
254
252
253
254
244
254
254
255
252
254
255
254
255
255
255
255
254
254
255
255
255
255
255
255
255
255
255
255
255
255
255
255
255
255
255
255
255
255
254
254
255
254
255
255
255
250
254
255
254
254
254
253
246
255
50
12
20
66
64
65
58
58
58
72
11
11
11
11
9
9
14
13
5
11
6
14
12
3
10
78
181
254
253
255
255
255
248
254
255
255
254
255
254
255
255
255
255
255
255
255
255
255
255
255
255
255
255
255
255
255
255
255
255
255
254
255
254
254
255
253
255
255
250
255
249
248
252
255
254
93
22
87
69
57
57
59
59
62
58
70
9
16
87
116
188
183
140
145
144
136
113
82
101
36
7
6
11
5
90
238
250
255
254
254
255
255
255
254
255
255
255
255
255
255
255
255
255
255
255
255
255
255
255
255
255
255
255
255
255
255
254
254
253
254
254
254
254
254
239
12
10
7
6
7
11
2
83
61
58
59
74
58
58
54
57
56
30
38
235
231
237
191
149
153
155
154
155
144
231
237
236
197
132
14
13
9
5
201
255
254
255
254
254
255
254
254
255
255
255
255
255
255
255
255
255
255
255
255
255
255
255
255
255
255
255
255
253
251
248
253
249
254
164
40
15
66
66
67
74
72
67
69
72
55
58
58
58
58
59
58
59
60
12
95
236
234
236
185
155
150
151
147
149
150
237
233
237
194
151
142
136
75
15
6
4
53
240
251
254
255
245
253
255
255
255
255
255
255
255
255
255
255
255
255
254
255
255
254
255
254
255
254
248
253
249
254
81
12
69
58
58
58
75
40
64
57
61
59
57
57
59
59
58
57
58
57
58
36
125
154
237
234
237
183
153
150
152
148
148
147
237
234
236
194
151
152
157
154
155
206
218
109
17
23
61
244
253
253
253
254
254
254
255
255
254
254
255
255
255
255
255
253
254
254
253
255
255
255
253
254
164
8
27
71
54
54
55
59
50
13
62
63
60
58
58
58
58
57
57
59
59
57
63
27
154
154
236
236
234
178
153
150
151
146
149
148
236
235
236
194
151
152
148
147
152
219
235
236
238
163
15
2
139
255
251
255
255
255
254
255
255
254
255
255
255
255
255
255
254
255
253
253
255
255
254
31
19
71
57
58
58
56
58
68
8
38
27
58
59
58
56
58
58
57
60
60
58
59
33
57
151
150
234
231
237
171
153
149
151
148
149
148
237
235
237
193
150
152
150
152
152
220
235
234
235
163
137
44
15
10
253
255
250
255
255
255
254
255
255
255
255
255
254
254
255
255
245
255
247
255
57
33
56
57
57
60
65
61
70
42
31
253
8
62
59
57
62
63
60
59
58
58
58
58
30
84
152
149
235
233
234
171
153
151
151
148
149
148
236
235
237
195
151
150
149
154
154
219
234
236
230
162
158
142
127
29
35
254
241
253
254
255
255
254
255
255
255
255
254
254
254
255
255
250
255
80
11
58
54
59
58
53
38
26
6
8
237
249
127
2
13
35
54
70
58
57
58
58
58
59
30
102
152
150
237
233
234
170
153
151
149
147
150
149
237
235
237
195
151
152
148
149
152
222
234
236
230
160
159
155
150
149
31
23
255
255
255
255
255
255
255
255
255
255
255
255
254
254
255
255
35
85
61
69
59
63
57
69
37
4
239
245
5
4
252
247
191
7
64
57
58
58
58
58
59
60
29
88
158
149
237
235
234
169
153
152
150
148
150
149
237
235
235
194
150
151
150
151
155
220
233
235
233
164
153
149
156
158
152
32
14
114
255
253
255
255
255
255
255
255
254
254
253
253
251
212
14
74
58
59
58
59
58
59
57
46
2
251
18
2
241
251
5
63
63
61
57
57
57
55
62
56
29
72
153
143
236
237
233
161
151
154
151
148
148
148
236
235
236
195
151
153
151
151
154
218
234
236
235
157
152
151
150
149
152
155
75
5
175
254
250
236
255
255
255
255
254
254
252
254
254
91
19
60
60
59
59
57
58
58
58
56
22
246
253
238
251
244
58
57
60
57
57
58
58
58
57
67
25
72
155
149
236
235
235
165
150
153
149
149
149
149
236
236
237
194
151
153
150
151
151
218
236
235
235
156
153
150
151
150
153
212
221
126
9
187
255
252
255
255
255
255
252
254
252
253
254
18
37
59
57
57
58
58
59
57
60
61
19
252
254
199
254
242
38
59
56
59
57
59
58
59
60
57
13
114
157
140
237
233
238
153
148
153
149
150
151
147
236
236
235
195
151
153
151
152
153
219
234
235
235
158
152
150
151
151
152
222
229
239
39
1
248
251
252
254
254
254
251
253
255
255
251
15
31
66
67
67
66
63
61
60
59
57
17
12
33
43
16
10
13
66
61
60
65
58
63
70
31
37
140
153
125
18
5
12
170
147
143
147
145
153
150
147
235
236
237
196
153
152
151
150
153
218
235
236
236
155
151
151
151
152
151
226
236
233
222
26
12
253
254
247
255
253
254
253
253
255
249
26
17
15
17
14
6
3
5
35
55
51
22
58
58
58
65
55
26
57
61
57
57
59
67
28
46
118
148
157
148
151
233
229
53
20
20
112
140
156
155
150
235
234
237
195
149
151
152
150
152
218
234
237
235
156
152
150
151
151
153
226
236
235
215
111
9
141
255
254
253
254
255
255
254
255
254
189
1
46
62
58
57
66
65
32
23
9
24
64
61
61
56
60
56
58
62
60
56
71
33
20
136
146
142
151
151
152
236
236
236
140
60
59
60
151
143
146
237
235
236
195
150
152
150
152
152
219
235
235
234
157
152
150
153
150
152
229
232
232
219
155
41
2
255
254
252
252
255
252
254
255
254
255
112
2
54
68
59
59
58
58
57
57
39
28
66
57
59
53
56
57
58
57
67
46
13
42
139
158
159
141
147
151
236
231
234
151
153
149
36
31
108
158
231
234
237
194
152
153
150
153
152
218
234
237
234
156
153
151
151
150
152
229
235
234
214
166
130
13
228
254
253
254
255
254
255
255
254
254
255
234
212
11
11
21
44
72
73
59
58
59
58
61
56
62
60
57
60
74
11
26
5
107
140
154
146
143
152
137
233
232
229
148
151
146
154
28
5
63
238
231
236
194
153
161
149
152
151
218
229
237
236
164
151
152
151
154
151
230
234
233
214
149
144
113
4
254
252
255
255
255
254
255
253
249
255
245
250
255
237
149
45
13
20
7
10
16
29
63
56
58
54
67
26
10
178
161
12
24
152
145
154
152
140
153
226
237
235
152
155
155
150
155
16
54
227
235
236
192
150
147
146
145
150
221
236
226
232
165
151
149
151
153
155
229
237
236
216
145
146
151
12
78
252
255
254
254
255
254
255
255
249
255
251
251
252
245
255
249
254
249
254
194
84
5
6
12
9
8
101
254
248
254
143
27
20
13
16
22
31
13
60
84
237
138
148
149
155
162
16
32
236
234
237
193
152
106
14
12
9
32
22
112
234
166
155
152
150
150
157
229
236
235
216
150
152
149
33
1
253
252
254
254
255
255
254
254
255
255
253
254
250
253
252
251
249
254
246
254
254
255
251
251
250
252
253
254
252
253
254
255
182
115
3
10
15
27
72
105
231
150
150
155
157
46
6
98
233
235
234
194
151
5
23
8
13
82
26
7
10
17
141
152
152
152
150
227
236
235
216
147
155
156
107
7
249
254
255
255
254
255
255
255
255
255
254
254
254
254
254
252
252
253
253
255
252
255
252
254
251
251
253
254
254
254
251
254
250
252
31
12
128
155
234
231
233
149
150
133
45
15
92
155
235
234
231
198
48
42
115
152
154
219
235
224
227
44
55
148
154
151
149
229
236
236
214
152
150
150
135
13
248
253
255
255
255
255
255
255
255
255
254
254
255
255
253
254
253
254
254
254
254
253
255
254
254
252
253
254
253
250
254
238
5
11
49
151
153
150
170
98
13
5
14
30
137
149
152
151
236
224
234
44
21
157
154
148
156
223
235
231
236
166
163
151
147
153
155
228
234
235
214
152
149
149
156
18
96
253
255
255
254
255
255
255
255
255
253
254
253
252
253
254
253
254
254
252
252
253
253
253
253
255
254
255
254
255
175
3
8
57
155
155
132
45
24
10
24
15
29
18
135
161
147
148
232
236
223
6
62
153
148
150
153
219
235
236
238
154
155
151
151
151
150
227
235
231
214
152
152
154
149
25
26
252
254
254
254
255
255
255
254
254
253
251
255
249
249
247
253
255
254
254
254
253
254
255
241
253
251
254
251
32
2
26
115
151
146
157
17
6
2
169
255
253
234
21
11
141
156
151
232
230
230
13
137
153
149
152
154
219
233
233
235
157
152
149
151
150
151
231
237
234
212
151
148
149
163
39
15
255
254
254
254
254
254
254
254
255
254
251
253
248
251
251
255
254
255
255
255
253
251
253
254
252
244
146
3
16
22
125
149
147
145
110
14
35
254
253
251
255
255
242
74
27
148
134
236
235
237
8
147
150
151
153
152
219
234
234
235
157
153
149
152
151
150
231
236
235
213
150
148
150
150
39
1
242
254
254
254
254
254
254
254
254
252
253
252
254
250
255
253
254
255
255
255
252
254
237
5
27
11
99
212
236
239
233
151
153
29
58
244
254
249
254
250
255
242
254
248
170
29
9
33
173
239
27
139
151
152
151
154
220
234
234
237
156
152
151
154
150
151
231
236
234
214
151
148
150
153
26
8
251
254
254
253
254
255
255
254
252
222
77
29
120
249
254
251
254
254
254
255
250
229
1
118
145
148
151
232
237
234
232
151
142
37
186
254
250
254
251
253
255
249
254
252
248
241
136
4
11
9
3
136
152
151
152
150
221
235
234
235
156
152
152
151
149
151
231
237
233
213
152
148
149
154
28
12
252
253
253
253
255
250
236
126
6
2
17
34
29
10
233
250
255
254
252
254
255
159
5
152
153
147
154
231
232
237
237
148
157
40
254
251
251
254
255
255
255
254
253
255
253
255
254
222
25
1
7
135
150
150
149
142
220
234
237
236
156
152
150
153
150
151
228
235
237
207
150
153
149
151
21
30
253
253
251
253
255
252
35
19
112
140
147
158
163
131
8
251
255
254
251
255
254
69
16
56
68
73
156
233
226
237
228
163
152
51
254
254
253
254
254
255
254
255
254
255
249
255
252
249
254
219
9
119
152
151
151
155
218
232
233
234
157
151
150
151
149
151
227
236
237
208
149
153
150
151
14
109
253
252
254
255
252
204
36
154
163
90
35
57
149
160
128
15
244
249
253
255
254
70
19
174
248
58
36
218
161
120
235
17
146
55
194
252
245
254
255
253
254
255
254
254
253
249
252
250
252
254
14
149
153
150
149
165
37
47
237
237
156
152
152
151
151
150
229
236
236
208
150
153
150
124
9
230
254
249
251
253
241
59
141
155
83
2
139
75
48
145
145
34
206
255
254
250
254
254
125
247
243
158
16
237
204
30
232
22
131
54
198
254
252
254
255
255
255
250
252
255
254
254
253
248
254
254
25
141
148
159
148
21
17
72
237
233
157
152
150
152
148
151
227
234
236
205
153
149
148
74
13
247
254
253
255
250
251
15
144
99
9
68
137
146
44
150
160
55
63
254
255
253
251
252
254
252
253
37
54
233
228
22
244
3
31
29
247
253
255
255
255
254
255
254
253
249
252
249
246
253
252
227
5
126
154
144
128
6
50
88
233
237
156
153
153
151
150
152
228
235
235
206
146
151
151
20
21
251
253
252
253
253
239
20
212
82
18
128
26
38
32
140
146
39
8
253
251
255
253
254
254
244
51
29
32
239
210
4
16
20
192
254
255
254
250
254
254
254
255
255
255
255
205
101
6
12
11
9
11
136
153
148
34
68
25
70
234
236
157
152
151
151
149
152
228
237
234
206
152
151
152
20
118
253
250
253
253
251
164
28
234
137
9
136
74
60
124
165
151
25
166
250
254
253
254
254
255
254
235
89
37
10
8
201
255
254
248
255
254
255
253
254
253
254
255
250
248
246
20
38
75
124
141
164
41
147
159
146
11
244
12
206
236
236
157
153
150
151
151
152
228
235
235
204
154
148
143
2
207
254
254
252
254
253
156
17
235
217
13
91
153
150
154
138
35
38
255
254
253
255
254
255
254
254
251
251
251
247
249
255
253
253
254
254
255
253
254
255
254
254
254
252
255
40
110
145
213
236
237
236
149
149
155
135
9
253
14
234
230
236
157
153
150
152
149
153
230
237
236
211
162
151
29
140
253
254
255
245
252
251
201
29
235
222
12
8
24
39
56
11
168
253
254
253
253
255
255
255
255
253
253
254
253
253
254
253
254
254
254
254
252
252
253
253
254
254
254
253
249
7
152
150
205
238
237
236
154
131
151
132
7
249
61
231
234
236
158
152
150
151
153
152
230
237
237
199
139
118
12
254
254
246
255
252
253
255
249
19
146
163
24
148
38
6
84
201
252
244
251
254
253
255
255
255
255
253
254
253
252
252
253
253
253
253
252
254
253
253
253
254
254
255
255
254
201
16
64
132
205
232
232
236
137
81
120
141
3
240
157
230
234
235
158
152
151
150
150
151
229
237
235
201
158
32
4
249
254
255
255
243
254
255
249
14
145
151
27
127
253
247
254
254
254
244
253
255
254
255
255
255
255
254
255
252
252
253
254
253
254
253
254
254
255
253
253
254
254
254
254
253
165
10
17
13
117
238
237
116
118
146
31
16
107
9
215
236
229
237
158
152
149
153
151
150
230
235
237
205
41
6
160
254
253
240
253
254
255
248
253
139
127
135
48
27
248
254
251
253
254
253
255
255
255
255
254
254
255
255
255
254
254
255
255
255
255
255
255
254
254
255
255
255
255
255
255
251
247
18
253
244
55
62
162
64
88
150
34
123
28
94
217
236
234
236
157
153
152
153
150
152
228
237
236
24
2
239
252
254
254
255
255
254
251
253
251
248
48
150
152
17
253
241
253
255
254
254
255
255
255
255
255
255
255
255
255
255
255
255
255
255
254
254
254
254
255
255
255
255
255
255
254
255
254
243
251
254
239
25
150
61
38
46
174
36
51
155
217
237
237
233
159
153
149
152
152
153
225
223
215
6
152
252
244
254
255
254
254
255
250
254
253
250
5
135
143
79
118
239
255
255
254
255
253
255
255
255
255
255
255
255
255
255
255
255
255
255
255
255
255
255
255
255
254
254
255
255
254
249
255
247
252
254
250
25
159
80
56
115
44
62
158
158
219
227
230
236
157
151
148
152
150
151
154
144
28
85
255
254
254
254
255
254
254
254
252
254
253
249
20
89
172
232
4
236
253
253
254
253
255
255
255
255
255
255
255
255
255
255
255
255
254
254
254
255
255
254
255
255
255
254
255
255
255
254
252
255
244
254
57
45
51
21
253
72
56
144
156
152
220
232
235
237
157
149
151
148
154
155
141
48
6
254
252
253
253
255
254
255
255
255
255
255
254
254
247
4
195
237
200
3
221
254
253
255
255
255
255
255
255
255
255
255
255
255
255
255
255
255
254
254
255
254
255
255
255
255
255
255
255
254
254
254
250
166
12
128
236
21
22
138
150
153
156
153
216
235
235
236
157
151
150
158
153
159
43
13
241
251
253
254
254
254
254
254
255
253
252
255
254
252
255
210
21
238
224
61
3
210
252
254
254
254
254
254
254
255
255
255
254
253
254
255
255
254
255
255
254
254
254
255
255
255
255
255
255
254
254
254
248
253
241
240
4
78
148
165
150
150
150
155
216
232
236
234
157
153
149
156
154
73
13
193
254
252
254
254
254
255
255
255
255
254
253
255
252
254
253
247
28
119
182
135
79
5
250
254
255
255
254
255
254
254
254
254
255
255
254
255
255
255
255
255
254
255
255
254
254
255
254
255
255
255
254
254
248
252
61
8
151
153
161
152
147
149
152
152
219
232
233
234
157
150
157
147
129
21
91
254
253
250
251
255
253
255
255
255
255
255
255
255
255
254
253
253
235
0
152
154
146
131
14
229
254
252
254
252
252
254
254
254
254
254
253
254
253
253
253
255
252
254
250
253
255
252
254
249
254
253
250
255
28
12
117
238
234
234
151
149
152
151
153
152
219
234
233
235
156
159
145
121
8
90
253
246
251
255
255
255
253
255
255
255
255
255
255
255
255
254
255
249
255
238
35
149
149
137
111
9
107
254
249
254
253
247
253
252
254
252
252
254
254
253
254
252
253
254
250
254
254
247
253
253
254
252
64
1
47
151
209
239
236
234
153
150
154
151
149
153
221
233
234
234
157
154
118
23
17
255
247
254
252
254
255
255
255
255
255
255
255
254
255
254
255
254
250
255
254
250
164
10
126
150
154
161
164
40
14
65
225
255
248
250
254
253
255
252
255
254
251
252
252
254
254
254
254
253
74
15
17
96
133
153
149
161
227
237
233
235
151
151
148
150
152
152
220
233
234
236
160
36
16
177
240
253
255
255
249
255
254
255
255
255
255
255
255
255
255
254
255
255
255
254
254
251
250
175
16
139
156
163
231
232
56
32
17
7
33
161
216
252
250
251
249
254
252
252
251
251
81
13
10
11
26
107
140
149
156
151
147
150
221
237
235
236
151
150
151
149
151
142
220
231
230
241
78
5
222
254
252
255
252
255
255
255
255
255
254
255
255
255
255
255
255
255
255
255
254
254
254
251
252
252
132
11
144
230
230
228
229
153
144
80
26
11
3
13
4
12
15
20
17
12
11
10
23
52
125
204
234
150
159
152
152
150
152
149
223
236
234
235
152
149
151
149
155
153
217
232
234
40
8
175
253
254
252
254
255
255
254
254
254
255
255
255
255
255
255
254
254
254
255
255
255
254
255
254
254
249
251
235
14
197
239
234
221
156
157
149
155
142
137
166
236
235
235
157
152
150
148
145
149
227
235
220
233
150
156
148
152
150
152
151
224
236
237
236
150
150
151
154
154
152
151
91
11
2
171
252
254
250
252
254
255
254
255
255
254
254
255
255
255
255
255
255
255
255
255
255
255
255
255
251
251
250
251
240
235
3
3
93
143
152
153
152
153
149
154
159
233
236
234
157
151
153
154
151
157
236
231
235
235
146
155
149
153
151
150
150
221
235
232
231
150
149
151
150
152
133
29
9
232
252
245
254
254
254
254
255
255
255
255
255
255
255
255
255
255
255
255
255
255
255
255
255
255
255
255
254
254
255
252
255
254
235
69
15
63
145
154
160
147
150
149
167
237
233
236
149
149
150
152
149
150
236
232
235
235
149
154
151
151
153
147
151
222
237
235
237
151
154
151
141
60
16
104
254
253
255
255
255
254
255
254
255
255
255
255
255
255
255
255
255
255
255
255
255
255
255
255
255
255
255
255
254
255
255
255
255
252
252
246
242
16
28
82
150
153
154
150
171
232
237
236
153
154
151
151
149
149
235
237
237
232
152
150
151
151
150
150
150
226
237
236
235
151
143
52
20
13
82
250
252
254
253
254
255
255
255
254
255
255
255
255
255
255
255
255
255
255
255
255
255
255
255
255
255
255
255
255
255
255
255
255
251
254
255
255
253
220
21
12
30
53
144
151
166
232
235
235
146
152
152
152
150
148
236
234
235
235
151
151
152
150
154
158
144
224
237
235
221
95
30
3
111
249
253
254
247
255
254
255
254
254
255
255
255
255
255
255
255
255
255
255
255
255
255
255
255
255
255
255
255
255
255
255
255
254
254
254
255
255
255
253
255
254
255
250
255
116
6
8
10
10
126
168
138
143
139
140
147
142
217
233
238
234
133
142
139
139
137
96
33
14
3
1
19
12
240
255
254
253
253
255
254
254
255
254
254
254
255
255
255
255
255
255
255
255
255
255
255
255
255
255
255
255
255
255
255
255
255
255
255
254
255
255
255
255
254
253
254
255
254
255
252
252
252
248
169
16
1
8
1
7
14
7
15
15
7
8
15
7
17
7
13
6
13
7
3
7
29
216
252
254
242
255
253
255
254
254
255
252
255
255
254
255
255
254
255
255
255
255
255
255
255
255
255
255
255
255
255
255
255
255
255
255
255
255
254
255
255
255
255
254
255
252
253
252
255
255
252
254
252
253
254
241
249
252
254
229
78
82
65
54
94
105
89
110
166
179
194
206
236
244
254
253
251
252
253
252
244
254
254
254
254
255
254
254
255
254
255
255
255
255
255
255
255
255
255
255
255
255
255
255
255
255
255
255
255
255
255
255
255
255
255
255
254
255
255
253
252
254
255
254
254
249
254
253
248
255
254
253
247
248
252
242
250
250
253
254
253
254
253
253
253
254
251
254
252
250
254
253
252
254
252
255
252
254
254
252
254
254
254
254
255
254
254
254
253
254
255
255
255
255
255
255
255
255
255
255
255
255
255
255
255
255
255
255
255
255
255
255
255
255
255
255
255
255
255
255
255
255
255
255
255
255
255
255
255
255
255
255
255
255
255
255
255
255
255
255
255
255
255
255
255
255
255
255
255
255
255
255
255
255
255
255
255
255
255
255
255
255
255
255
255
255
255
255
255
255
255
255
255
255
255
255
255
255
