P1
# CREATOR: GIMP PNM Filter Version 1.1
300 131
0000000000000000000000000000000000000000000000000000000000000000000000
0000000000000000000000000000000000000000000000000000000000000000000000
0000001111111110000000000000000000000000000000000000000000000000000000
0000000000000000000000000000000000000000000000000000000000000000000000
0000000000000000000000000000000000000000000000000000000000000000000000
0000000000000000000000000000000000000000000000000000000000000000000000
0000000000000000000000000111111111110000000000000000000000000000000000
0000000000000000000000000000000000000000000000000000000000000000000000
0000000000000000000000000000000000000000000000000000000000000000000000
0000000000000000000000000000000000000000000000000000000000000000000000
0000000000000000000000000000000000000000000011111111111100000000000000
0000000000000000000000000000000000000000000000000000000000000000000000
0000000000000000000000000000000000000000000000000000000000000000000000
0000000000000000000000000000000000000000000000000000000000000000000000
0000000000000000000000000000000000000000000000000000000000000000111111
1111110000000000000000000000000000000000000000000000000000000000000000
0000000000000000000000000000000000000000000000000000000000000000000000
0000000000000000000000000000000000000000000000000000000000000000000000
0000000000000000000000000000000000000000000000000000000000000000000000
0000000000000011111111111100000000000000000000000000000000000000000000
0000000000000000000000000000000000000000000000000000000000000000000000
0000000000000000000000000000000000000000000000000000000000000000000000
0000000000000000000000000000000000000000000000000000000000000000000000
0000000000000000000000000000000000111111111111000000000000000000000000
0000000000000000000000000000000000000000000000000000000000000000000000
0000000000000000000000000000000000000000000000000000000000000000000000
0000000000000000000000000000000000000000000000000000000000000000000000
0000000000000000000000000000000000000000011110000000001111111111110000
0000011110000000000000000000000000000000000000000000000000000000000000
0000000000000000000000000000000000000000000000000000000000000000000000
0000000000000000000000000000000000000000000000000000000000000000000000
0000000000000000000000000000000000000000000000000000000000001111110000
0000111111111111000000001111110000000000000000000000000000000000000000
0000000000000000000000000000000000000000000000000000000000000000000000
0000000000000000000000000000000000000000000000000000000000000000000000
0000000000000000000000000000000000000000000000000000000000000000000000
0000000001111111100000001111111111111000000111111110000000000000000000
0000000000000000000000000000000000000000000000000000000000000000000000
0000000000000000000000000000000000000000000000000000000000000000000000
0000000000000000000000000000000000000000000000000000000000000000000000
0000000000000000000000000000111111111110011111111111111111110011111111
1100000000000000000000000000000000000000000000000000000000000000000000
0000000000000000000000000000000000000000000000000000000000000000000000
0000000000000000000000000000000000000000000000000000000000000000000000
0000000000000000000000000000000000000000000000011111111111111111111111
1111111111111111111111100000000000000000000000000000000000000000000000
0000000000000000000000000000000000000000000000000000000000000000000000
0000000000000000000000000000000000000000000000000000000000000000000000
0000000000000000000000000000000000000000000000000000000000000000000111
1111111111111111111111111111111111111111111100000000000000000000000000
0000000000000000000000000000000000000000000000000000000000000000000000
0000000000000000000000000000000000000000000000000000000000000000000000
0000000000000000000000000000000000000000000000000000000000000000000000
0000000000000000111111111111111111111111111111111111111111111111000000
0000000000000000000000000000000000000000000000000000000000000000000000
0000000000000000000000000000000000000000000000000000000000000000000000
0000000000000000000000000000000000000000000000000000000000000000000000
0000000000000000000000000000000000001111111111111111111111111111111111
1111111111111100000000000000000000000000000000000000000000000000000000
0000000000000000000000000000000000000000000000000000000000000000000000
0000000000000000000000000000000000000000000000000000000000000000000000
0000000000000000000000000000000000000000000000000000000001111111111111
1111111111111111111111111111111111000000000000000000000000000000000000
0000000000000000000000000000000000000000000000000000000000000000000000
0000000000000000000000000000000000000000000000000000000000000000000000
0000000000000000000000000000000000000000000000000000000000000000000000
0000000011111111111111111111111111111111111111111111100000000000000000
0000000000000000000000000000000000000000000000000000000000000000000000
0000000000000000000000000000000000000000000000000000000000000000000000
0000000000000000000000000000000000000000000000000000000000000000000000
0000000000000000000000000000011111111111111111111111111111111111111111
1100000000000000000000000000000000000000000000000000000000000000000000
0000000000000000000000000000000000000000000000000000000000000000000000
0000000000000000000000000000000000000000000000000000000000000000000000
0000000000000000000000000000000000000000000000000111111111111111100000
0000011111111111111110000000000000000000000000000000000000000000000000
0000000000000000000000000000000000000000000000000000000000000000000000
0000000000000000000000000000000000000000000000000000000000000000000000
0000000000000000000000000000000000000000000000000000000000000000000000
1111111111111100000000000001111111111111000000000000000000000000000000
0000000000000000000000000000000000000000000000000000000000000000000000
0000000000000000000000000000000000000000000000000000000000000000000000
0000000000000000000000000000000000000000000000000000000000000000000000
0000000000000000000011111111111100000000000000001111111111110000000000
0000000000000000000000000000000000000000000000000000000000000000000000
0000000000000000000000000000000000000000000000000000000000000000000000
0000000000000000000000000000000000000000000000000000000000000000000000
0000000000000000000000000000000000000000111111111110000000000000000001
1111111111000000000000000000000000000000000000000000000000000000000000
0000000000000000000000000000000000000000000000000000000000000000000000
0000000000000000000000000000000000000000000000000000000000000000000000
0000000000000000000000000000000000000000000000000000000000011111111111
0000000001010000000011111111111000000000000000000000000000000000000000
0000000000000000000000000000000000000000000000000000000000000000000000
0000000000000000000000000000000000000000000000000000000000000000000000
0000000000000000000000000000000000000000000000000000000000000000000000
0000000001111111111000000011111111100000011111111110000000000000000000
0000000000000000000000000000000000000000000000000000000000000000000000
0000000000000000000000000000000000000000000000000000000000000000000000
0000000000000000000000000000000000000000000000000000000000000000000000
0000000000000000000000000000111111111110000001111111111100000011111111
1110000000000000000000000000000000000000000000000000000000000000000000
0000000000000000000000000000000000000000000000000000000000000000000000
0000000000000000000000000000000000000000000000000000000000000000000000
0000000000000000000000000000000000000000001111111111111111000000111111
1111111000001111111111111111100000000000000000000000000000000000000000
0000000000000000000000000000000000000000000000000000000000000000000000
0000000000000000000000000000000000000000000000000000000000000000000000
0000000000000000000000000000000000000000000000000000000000000111111111
1111111100000111111111111110000001111111111111111100000011111111100000
0000000000000000000000000000000000000000000000000000000000000000000000
0000000000000000000000000000000000000000000000000000000000000000000000
0000000000000000000000000000000000000000000000000000000000000000000000
0000000000111111111111111110000011111111111111110000011111111111111111
0000011111111111000000000000000000000000000000000000000000000000000000
0000000000000000000000000000000000000000000000000000000000000000000000
0000000000000000000000000000000000000000000000000000000000000000000000
0000000000000000000000000000001111111111111111100000111111000011111100
0001111111111111111100000111111111110000000000000000000000000000000000
0000000000000000000000000000000000000000000000000000000000000000000000
0000000000000000000000000000000000000000000000000000000000000000000000
0000000000000000000000000000000000000000000000000001111111111111111000
0011111000000111111000011111111111111111000001111111111100000000000000
0000000000000000000000000000000000000000000000000000000000000000000000
0000000000000000000000000000000000000000000000000000000000000000000000
0000000000000000000000000000000000000000000000000000000000000000000000
1111111111111111100000111110000001111100000111111111111111110000011111
1111110000000000000000000000000000000000000000000000000000000000000000
0000000000000000000000000000000000000000000000000000000000000000000000
0000000000000000000000000000000000000000000000000000000000000000000000
0000000000000000000011111111111111111000001111100000011111100001111111
1111111111000011111111111110000000000000000000000000000000000000000000
0000000000000000000000000000000000000000000000000000000000000000000000
0000000000000000000000000000000000000000000000000000000000000000000000
0000000000000000000000000000000000000000111111111111111110000011111100
0001111100000111111111111111110000111111111111000000000011100000000000
0000000000000000000000000000000000000000000000000000000000000000000000
0000000000000000000000000000000000000000000000000000000000000000000000
0000000000000000000000000000000000000000000000000000000000000111111111
1111111000001111111001111111000001111111111111111100001111111111111000
0000011111000000000000000000000000000000000000000000000000000000000000
0000000000000000000000000000000000000000000000000000000000001111111100
0000000000000000000000000001011111110000000000000000000000000000000000
0000000000111111111111111111000001111111111111110000011111111111111111
0000111111111111100000011111111000000000000000000000000000000000000000
0000000000000000000000000000000000000000000000000011110111110000000000
0000001111111111111110000000000000000000000011111111111111100000000000
0000000000000000000000000000000111111111111111110000011111111111111000
0011111111111111111001111111111111111111001111111111100000000000000000
0000000000000000000000000000000000000000000000000000000000000000000000
1111111111000000000000001111111111111111111000000000000000000011111111
1111111111110000000000000000000000000000000000000000101111111111111110
0000111111111111000000111111111111111111111111111111111111111111111111
1110000000000000010111111111110000000000000000000000000000000000000000
0000000000000000000011111111110000000000001111111111111111111111000000
0000000000011111111111111111111110000000000000000000000000000000000000
0000000001111111111000000011111111100000011111111111111111111111111111
1111111111111111111111110000000111111111010101010111111100000000000000
0000000000000000000000000000000000000000111111111100000000000011111111
1111111111111110000000000000001111111111111111111111110000000000000000
0000000000000000000000000000011111111111000000011111100000000111111111
1111111111111111111111111111111111111111111110011111010000000000000000
0000111111100000000000000000000000000000000000000000000000001111111111
1000000000111111111111111111111111110000000000000111111111111111111111
1111100000000000000000000000000000000000000000000011111111110000000000
0000000000111111111111111111111111111111111111111111111111111111111100
0000000000000000000000000000011111000000000000000000000000000000000000
0000000000111111111100000000001111111111111111111111111110000000000001
1111111111111111111111111000000000000000000000000000000000011111111100
1111111111110000000000000000011111111111111111111111111111111111111111
1111111111111110000000000000000000000000000000000000011110000000000000
0000000000000000000000000000001111111111000000000111111111111111111111
1111111000000000001111111111111111111111111111000000000000000000000000
0000000011111111111001111111111110000000000000001111111111111111111111
1111111111111111111111111111111110000000000000000000000000000000000000
0000001110000000000000000000000000000000000000000011111111110000000001
1111111111111111111111111111000000000111111111111111111111111111110000
0000000000000000000000000000111111111111111111111111111000000000001111
1111111111111111111111111111111111111111111111111100000000000000000000
0000000000000000000000000000111000000000000000000000000000000000000000
1111111111100000000111111111111111111111111111110000000001111111111111
1111111111111111100000000000000000000000000000001111111111111111111111
1111111000000111111111111111111111111111111111000000000111111111111110
0000000000000000000000000000000000000000000000000011100000000000000000
0000000000000000000011111111110000000011111111111111111111111111111100
0000000111111111111111111111111111111000000000000000000000000000000111
1111111111111111111111111111111111111111111111111111111111111111000000
0000000111111111000000000000000000000000000000000000000000000000000000
0011000000000000000000000000000000000000111111111100000000111111111111
0000001111111111111000000001111111111110000001111111111110000000000000
0000000000000000001111111111111111111111111111111111111111111111111111
1111111111110000000000000000011111100000000000000000000000000000000000
0000000000000000000000011100000000000000000000000000000000001111111111
0000000011111111111000000001111111111110000000011111111111000000001111
1111111000000000000000000111000000000111111111111111111111111111111111
1111111111111111111111111111111000000000000000000011100000000000000000
0000000000000000000000000000000000000000000001100000000000000000000000
0000000000111111111110000000111111111110000000001111111111100000001111
1111111000000000011111111110000000000000000011111000000000111111111111
1111111111111111111111111111111111111111111111111110000000011010000001
1100000000000000000000000000000000000000000000000000000000000000001110
0000000000000000000000000000001111111111000000001111111111000000000011
1111111110000000111111111110000000000111111111100000000000000011111111
0000000111111111111111111111111111111111111111111111111111111111111110
0000001111111110001100000000000000000000000000000000000000000000000000
0000000000000000001100000000000000000000000000000011111111111000000011
1111111110000000001111111111100000001111111111100000000001111111111000
0000000000001111111111001111111111111111111111111111111111111111111111
1111101111111111111000000111111111110110000000000000000000000000000000
0000000000000000000000000000000000000001100000000000000000000000000000
1111111111000000001111111111000000000011111111111000000011111111111000
0000000111111111100000000000000111111111111111111111111111111111111111
1111111111111111101000000000000000101111110011111111111111000000000000
0000000000000000000000000000000000000000000000000000000000001100000000
0000000000000000000011111111110000000011111111110000000000111111111110
0000000111111111100000000001111111111000000000000011111111111111111111
1111111111111111111111111111111110000000000000000000000000001111111111
1111111000000000000000000000000000000000000000000000000000000000000000
0000000000011000000000000000000000000000111111111100000000111111111100
0000000000010000000000000011111111111000000000000100100000000000000001
1111111111111111111111111111111111111111111111111100000000000000000000
0000000000000011111111111100000000000000000000000000000000000000000000
0000000000000000000000000000000011000000000000000000000000001111111111
1000000011111111111000000000000000000000000000111111111110000000000000
0000000000000000000011111111111111111111111111111111111111111111111000
0000000000000000000000000000000000001110000110000000000000000000000000
0000000000000000000000000000000000000000000000000000011000000000000000
0000000000111111111100000000111111111100000000000000000000000000001111
1111111000000000000000000000000000000000111111111111111111111111111111
1111111111111110000000000000000000000000000000000000000000111011000000
0000000000000000000000000000000000000000000000000000000000000000000000
0000100000000000000000000000001111111111100000001111111111000000000000
0000000000000000111111111110000000000000000000000000000000000111111111
1111111111111111111111111111111110000000000000000000000000000000000000
0000000000111000000000000000000000000000000000000000000000000000000000
0000000000000000000000001100000000000000000000000011111111110000000011
1111111100000000000000000000000000001111111111100000000000000000000000
0000000000011111111111111111111111111111111111111111000000000000000000
0000000000000000000000000000000010000000000000000000000000000000000000
0000000000000000000000000000000000000000000001100000000000000000000000
1111111111000000001111111111100000000000000000000000000011111111111000
0000000000000000000000000000000001111111111111111000000000111111111111
0000000000000000000000000000000000000000000000000000000000000000000000
0000000000000000000000000000000000000000000000000000000000000000001100
0000000000000000000011111111111000000011111111110000000000000000000000
0000001111111111100000000000000000000000000000000000011111111111111000
0000000000111111111000000000000000000000000000000000000000000000000000
0000000000000000000000000000000000000000000000000000000000000000000000
0000000000000000010000000000000000000000111111111100000000111111111100
0000000000000000000000000011111111111000000000000000000000000000000000
0000111111111110000000000000000111111100000000000000000000000000000000
0000000000000000000000000000000000000000000000000000000000000000000000
0000000000000000000000000000000000000110000000000000000000001111111111
1000000111111111110000000000000000000000000000111111111110000000000000
0000000000000000000000011111111111000000000000000000011100000000000000
0000000000000000000000000000000000000000000000000000000000000000000000
0000000000000000000000000000000000000000000000000000000000100000000000
0000000000111111111100000000111111111110000000000000000000000000000111
1111111000000000000000000000000000000000000111111111110000000010100000
0001100000000000000000000000000000000000000000000000000000000000000000
0000000000000000000000000000000000000000000000000000000000000000000000
0000000011000000000000000000001111111111000000001111111111000000000000
0000000000000000111111111110000000000000000000000000000000000011111111
1100000001111111110000111000000000000000000000000000000000000000000000
0000000000000000000000000000000000000000000000000000000000000000000000
0000000000000000000000000000110000000000000000000011111111111000000011
1111111100000000000000000000000000001111111111100000000000000000000000
0000000000001111111111000000111111111110001000000000000000000000000000
0000000000000000000000000000000000000000000000000000000000000000000000
0000000000000000000000000000000000000000000000000100000000000000000000
1111111111000000001111111111000000000000000000000000000011111111111000
0000000000000000000000000111111111111111110000011111111111110110000000
0000000000000000000000000000000000000000000000000000000000000000000000
0000000000000000000000000000000000000000000000000000000000000000000001
0000000000000000000011111111111000000011111111111000000000000000000000
0000001111111111100000000000000000000000000011111111111111111000001111
1111111111110000000000000000000000000000000000000000000000000000000000
0000000000000000000000000000000000000000000000000000000000000000000000
0000000000000000000110000000000000000000111111111100000000111111111100
0000000000000000000000000011111111111000000000000000000000000000111111
1111111111100000111111111111111100000000000000000000000000000000000000
0000000000000000000000000000000000000000000000000000000000000000000000
0000000000000000000000000000000000000000100000000000000000001111111111
1000000011111111110000000000000000000000000000011111111110000000000000
0000000000000011111111111111111000001111100001111110000000000000000000
0000000000000000000000000000000000000000000000000000000000000000000000
0000000000000000000000000000000000000000000000000000000000001000000000
0000000000111111111100000000111111111100000000000000000000000000001111
1111111000000000000000000000000001111111111111111100000111111000001111
0000000000000000000000000000000000000000000000000000000000000000000000
0000000000000000000000000000000000000000000000000000000000000000000000
0000000000100000000000000000001111111111100000001111111111100000000000
0000000000000000111111111110000000000000000000000000001111111111111111
0000011111100000011100000000000000000000000000000000000000000000000000
0000000000000000000000000000000000000000000000000000000000000000000000
0000000000000000000000000000001100000000000000000011111111110000000011
1111111100000000000000000000000000001111111111100000000000000000000000
0001111111111111111100000111110000001111000000000000000000000000000000
0000000000000000000000000000000000000000000000000000000000000000000000
0000000000000000000000000000000000000000000000000010000000000000000000
1111111111100000001111111111100000000000000000000000000001111111111000
0000000000000000000000001111111111111111100001111110000011100000000000
0000000000000000000000000000000000000000000000000000000000000000000000
0000000000000000000000000000000000000000000000000000000000000000000000
1100000000000000000011111111110000000011111111110000000000000000000000
0000001111111111100000000000000000000000000111111111111111111000001111
1100011110000000000000000000000000000000000000000000000000000000000000
0000000000000000000000000000000000000000000000000000000000000000000000
0000000000000000000010000000000000000000111111111100000000111111111100
0000000000000000000000000011111111111000000000000000000000000000111111
1111111111100000111111111111100000000000000000000000000000000000000000
0000000000000000000000000000000000000000000000000000000000000000000000
0000000000000000000000000000000000000000110000000000000000001111111111
1000000011111111110000000000000000000000000000111111111110000000000000
0000000000000011111111111111111000001111111111111000000000000000000000
0000000000000000000000000000000000000000000000000000000000000000000000
0000000000000000000000000000000000000000000000000000000000001000000000
0000000000111111111100000000111111111110000000000000000000000000001111
1111111000000000000000000000000000001111111111111111000000111111111100
0000000000000000000000000000000000000000000000000000000000000000000000
0000000000000000000000000000000000000000000000000000000000000000000000
0000000000100000000000000000001111111111100000001111111111000000000000
0000000000000000111111111110000000000000000000000000000000000011111111
1100000011111111110000000000000000000000000000000000000000000000000000
0000000000000000000000000000000000000000000000000000000000000000000000
0000000000000000000000000000001000000000000000000011111111110000000011
1111111100000000000000000000000000001111111111100000000000000000000000
0000000000001111111111100000001111111100000000000000000000000000000000
0000000000000000000000000000000000000000000000000000000000000000000000
0000000000000000000000000000000000000000000000000110000000000000000000
1111111111100000001111111111000000000000000000000000000011111111111000
0000000000000000000000000000000001111111111100000000000001000000000000
0000000000000000000000000000000000000000000000000000000000000000000000
0000000000000000000000000000000000000000000000000000000000000000000001
1000000000000000000011111111110000000011111111111000000000000000000000
0000001111111111100000000000000000000000000000000000011111111111100000
0000000110000000000000000000000000000000000000000000000000000000000000
0000000000000000000000000000000000000000000000000000000000000000000000
0000000000000000000100000000000000000000111111111110000000111111111100
0000000000000000000000000011111111111000000000000000000000000000000000
0000111111111111000000000001000000000000000000000000000000000000000000
0000000000000000000000000000000000000000000000000000000000000000000000
0000000000000000000000000000000000000001000000000000000000001111111111
0000000011111111111000000000000000000000000000111111111110000000000000
0000000000000000000000011111111111111000000000011000000000000000000000
0000000000000000000000000000000000000000000000000000000000000000000000
0000000000000000000000000000000000000000000000000000000000110000000000
0000000000111111111100000000111111111100000000000000000000000000001111
1111111000000000000000000000000000000000001111111111111111110000000110
0000000000000000000000000000000000000000000000000000000000000000000000
0000000000000000000000000000000000000000000000000000000000000000000000
0000000011000000000000000000001111111111100000001111111111000000000000
0000000000000000111111111110000000000000000000000000000000000111111111
1111111111111111110000000000000000000000000000000000000000000000000000
0000000000000000000000000000000000000000000000000000000000000000000000
0000000000000000000000000000011100000000000000000011111111110000000011
1111111100000000000000000000000000001111111111100000000000000000000000
0000000000011111111111111111111111100000000000000000000000000000000000
0000000000000000000000000000000000000000000000000000000000000000000000
0000000000000000000000000000000000000000000000000001110000000000000000
1111111111100000001111111111100000000000000000000000000011111111111000
0000000000000000000000000000001111111111111111111111100000000000000000
0000000000000000000000000000000000000000000000000000000000000000000000
0000000000000000000000000000000000000000000000000000000000000000000000
0001100000000000000011111111110000000111111111110000000000000000000000
0000001111111111100000000000000000000000000000000111111111111111111111
1000000000000000000000000000000000000000000000000000000000000000000000
0000000000000000000000000000000000000000000000000000000000000000000000
0000000000000000000000001110000000000000111111111110000000111111111100
0000000000000000000000000011111111111000000000000000000000000000000000
1111111111111111111100000000000000000000000000000000000000000000000000
0000000000000000000000000000000000000000000000000000000000000000000000
0000000000000000000000000000000000000000000000110000000000001111111111
0000000011111111110000000000000000000000000000111111111110000000000000
0000000000000000000011111111111111111100000000000000000000000000000000
0000000000000000000000000000000000000000000000000000000000000000000000
0000000000000000000000000000000000000000000000000000000000000000000111
0000000000111111111110000000111111111110000000000000000000000000001111
1111111000000000000000000000000000000000011111111111111110000000000000
0000000000000000000000000000000000000000000000000000000000000000000000
0000000000000000000000000000000000000000000000000000000000000000000000
0000000000000000000110000000001111111111000000001111111111000000000001
1111111110000000111111111110000000000111111111100000000000000011111111
1000110000000000000000000000000000000000000000000000000000000000000000
0000000000000000000000000000000000000000000000000000000000000000000000
0000000000000000000000000000000000000000110000000011111111110000000011
1111111100000000001111111111100000001111111111100000000001111111111000
0000000000000111111100011000000000000000000000000000000000000000000000
0000000000000000000000000000000000000000000000000000000000000000000000
0000000000000000000000000000000000000000000000000000000000000110000000
1111111111100000001111111111000000000011111111111000000011111111111000
0000000111111111100000000000000000111110011000000000000000000000000000
0000000000000000000000000000000000000000000000000000000000000000000000
0000000000000000000000000000000000000000000000000000000000000000000000
0000000000001100000011111111110000000011111111111000000000111111111110
0000001111111111100000000001111111111000000000000000000111000110000000
0000000000000000000000000000000000000000000000000000000000000000000000
0000000000000000000000000000000000000000000000000000000000000000000000
0000000000000000000000000000000001000000111111111100000000111111111100
0000000011111111111000000011111111111000000000011111111110000000000000
0000000000110000000000000000000000000000000000000000000000000000000000
0000000000000000000000000000000000000000000000000000000000000000000000
0000000000000000000000000000000000000000000000000000011000001111111111
1000000011111111111000000000111111111110000000011111111111000000001111
1111111000000000000000000000011000000000000000000000000000000000000000
0000000000000000000000000000000000000000000000000000000000000000000000
0000000000000000000000000000000000000000000000000000000000000000000000
0000110000111111111100000000111111111111000000011111111111100000001111
1111111100000000111111111110000000000000000000000100000000000000000000
0000000000000000000000000000000000000000000000000000000000000000000000
0000000000000000000000000000000000000000000000000000000000000000000000
0000000000000000000000000110001111111111100000001111111111111000011111
1111111100000000011111111111110001111111111111100000000000000000000011
0000000000000000000000000000000000000000000000000000000000000000000000
0000000000000000000000000000000000000000000000000000000000000000000000
0000000000000000000000000000000000000000000000100011111111110000000011
1111111111111111111111111111000000000111111111111111111111111111111000
0000000000000000001000000000000000000000000000000000000000000000000000
0000000000000000000000000000000000000000000000000000000000000000000000
0000000000000000000000000000000000000000000000000000000000000000001100
1111111111100000000111111111111111111111111111110000000001111111111111
1111111111111111000000000000000000000110000000000000000000000000000000
0000000000000000000000000000000000000000000000000000000000000000000000
0000000000000000000000000000000000000000000000000000000000000000000000
0000000000000000010011111111110000000001111111111111111111111111111100
0000000011111111111111111111111111110000000000000000000001000000000000
0000000000000000000000000000000000000000000000000000000000000000000000
0000000000000000000000000000000000000000000000000000000000000000000000
0000000000000000000000000000000000000100111111111110000000001111111111
1111111111111111100000000000111111111111111111111111111100000000000000
0000000100000000000000000000000000000000000000000000000000000000000000
0000000000000000000000000000000000000000000000000000000000000000000000
0000000000000000000000000000000000000000000000000000000001101111111111
0000000000111111111111111111111111110000000000000111111111111111111111
1111100000000000000000000000000000000000000000000000000000000000000000
0000000000000000000000000000000000000000000000000000000000000000000000
0000000000000000000000000000000000000000000000000000000000000000000000
0000000010111111111100000000000111111111111111111111111100000000000001
1111111111111111111111110000000000000000000000000000000000000000000000
0000000000000000000000000000000000000000000000000000000000000000000000
0000000000000000000000000000000000000000000000000000000000000000000000
0000000000000000000000000000101111111111100000000000111111111111111111
1111100000000000000011111111111111111111111000000000000000000000000000
0000000000000000000000000000000000000000000000000000000000000000000000
0000000000000000000000000000000000000000000000000000000000000000000000
0000000000000000000000000000000000000000000000001011111111110000000000
0001111111111111111111110000000000000000001111111111111111111100000000
0000000000000000000000000000000000000000000000000000000000000000000000
0000000000000000000000000000000000000000000000000000000000000000000000
0000000000000000000000000000000000000000000000000000000000000000000010
1111111111000000000000001111111111111111110000000000000000000001111111
1111111111100000000000000000000000000000000000000000000000000000000000
0000000000000000000000000000000000000000000000000000000000000000000000
0000000000000000000000000000000000000000000000000000000000000000000000
0000000000000000000000000000000000000000000000011111111111100000000000
0000000000000001111111111111000000000000000000000000000000000000000000
0000000000000000000000000000000000000000000000000000000000000000000000
0000000000000000000000000000000000000000000000000000000000000000000000
0000000000000000000000000000000000000000000000000000000000000000000000
0010100000000000000000000000000000000001001000000000000000000000000000
0000000000000000000000000000000000000000000000000000000000000000000000
0000000000000000000000000000000000000000000000000000000000000000000000
0000000000000000000000000000000000000000000000000000000000000000000000
0000000000000000000000000000000000000000000000000000000000000000000000
0000000000000000000000000000000000000000000000000000000000000000000000
0000000000000000000000000000000000000000000000000000000000000000000000
0000000000000000000000000000000000000000000000000000000000000000000000
0000000000000000000000000000000000000000000000000000000000000000000000
0000000000000000000000000000000000000000000000000000000000000000000000
0000000000000000000000000000000000000000000000000000000000000000000000
0000000000000000000000000000000000000000000000000000000000000000000000
0000000000000000000000000000000000000000000000000000000000000000000000
0000000000000000000000000000000000000000000000000000000000000000000000
0000000000000000000000000000000000000000000000000000000000000000000000
0000000000000000000000000000000000000000000000000000000000000000000000
0000000000000000000000000000000000000000000000000000000000000000000000
0000000000000000000000000000000000000000000000000000000000000000000000
0000000000000000000000000000000000000000000000000000000000000000000000
0000000000000000000000000000000000000000000000000000000000000000000000
0000000000000000000000000000000000000000000000000000000000000000000000
0000000000000000000000000000000000000000000000000000000000000000000000
0000000000000000000000000000000000000000000000000000000000000000000000
0000000000000000000000000000000000000000000000000000000000000000000000
0000000000000000000000000000000000000000000000000000000000000000000000
0000000000000000000000000000000000000000000000000000000011000000000000
0000001000000000000000000000000000000000000000000000000000000010000000
0000000000000000000000000000010000000000000000000000000000000000001000
0000000000000000000000000000000000000000000000000000000000000000000000
0000000000000000000000000000000000000000111100000000000000000000000000
0000011000000000000000000010000000000000000000000001100000000000000000
0000000000011000000000000000000000000001111110000100000000000000000000
0000000000000000100000000000000111111100000000000000000000000000000000
0000000000000000000000000000000000110000000000000000000000000111000000
0000000000000000000000000100000000000000000000100000000000000000000000
0000000000000000000000000000000110000000000000000000000001111010100001
1000000000000000000000000000000000001000000000000011100101000000000000
0000000000000000000000000000000000000000000000010000000000000000000000
0000000000011000000000000000000000000000000000000000000000000000000000
0000000000000000000000000000000000000000000000000001100000000000000000
0000001100000000000100000000000000000000000000000000000011000000000001
1000000000000000000000000000000000000000000000000000000000000000000100
0000000000000000000000000000000010000000001000000000010000000000001000
0000000010000000000000000100000000000100000000000101000000000000000010
0110000000000000000000000011000000000001000000010100000000000000000000
0001101000000000001100000000000000101000000000001000001000000000001000
0000000000000000110100000000000000100000000010100001100000111111100000
0111111100000111111000011011111000001000000111110000011111000110000011
1110000000000000111111100001100001100000000001100000000000011000001111
1100000110000110000011111110000000000011000000000000011111100000111111
1011111000011011111000001100001100011111000011000011111110000001111111
0010000011000110000011000111000011000010000111000110000110000011000110
0001100000010000011000110000000000011000011000011000011000000000011000
0000000001000001100001100001100001100001100001110000000000110000000000
0011000011000011000111000110000111000011000010000011000011000000100000
1100001100001100001101100000110000110001100000110000110000110000110000
1000001100011000011000011000000110000100000100000000001100000110000110
0001100000000001100000000000011000010000011000011000011000011000001000
0000000010000000000001100000110000110000110000100000110000110000110000
1100000100000011000011000011000110000011001000001000001100011000001100
0011101111000110000010000010000111010110000110000001000011110111100000
0000110000011000011000011000000000011000000000000100001100000011000110
0001100001100000100000000000110000000000011000000100001100001000001000
0110000001000010000011000011000000100000100000110001100000110110000010
0000100001100000110000111110110000100001110001100001111111100001000000
0110001110110100000000001100000110000110000110000000000110000000000001
1000110000001000011000011000010000001100000000001100000000000100000011
0000110000110000110000100000110000110000100000010000001100001100001100
0110000011001000011000001100011000001100001000000000011000001000001000
0110000000000110000001000011000000000000000011000001100001100001100000
0000001100000000000100001100000010000110000110000110000010000000000011
0000000000011000001100001100001000001000011000001100001000001100001100
0000100000100000110001100000110110000010000011000110000011000011000000
0000100000100000110001100000000001000000011000010000000000000000110000
0110000110000110000000000011000000000001100001000001100001100001100001
1000011000000000000110000000000110000011000010000011000011000011000011
0000110000110000011000001100001100001100001000001101110000100000110000
1100011100000110001000011000001100001000001100001000011000000100000111
0001000000000001100011100000110011100000000000011110011000010000011100
1110000011001110000011001111000000000000111000110000110001100000110000
1000001000001110011000001110011100000110000010000010000011000011100111
1111000011000010000001111011000001111110000010000010000110000001111100
0001000000010000001111110000000000001111011000001111011000000000000011
1111100001100000111110000000111110100000111110100000000000000111111000
0001111100000011000010000010000110111110000001111011000001111000100000
1100001100000111110100000000000000000000000000110000000000000000000000
0000000000000000000000000000000000000000000000000000000000000000000000
0000000000000000000000000000000000000000000000000000000000000000000000
0000000000000000000000000000000000000000000000000000100000000000000000
0000000000000000000000000000000000000011000000000000000000000000001100
0000000000000000000000000000000000000000000000000000000000000000000000
0000000000000000000000000000000000000000000000000000000000000000000000
0000000000000000000000000000000000000000000000000000000000000000000000
0110000000000000000000000000000000000000000000000000000000110000000000
0000000000100001100000000000000000000000000000000000000000000000000000
0000000000000000000000000000000000000000000000000000000000000000000000
0000000000000000000000000000000000000000000000000000000000000000000000
0000000000000000000000100000000000000000000000000000000000000000000000
0010000110000000000000000000001111110000000000000000000000000000000000
0000000000000000000000000000000000000000000000000000000000000000000000
0000000000000000000000000000000000000000000000000000000000000000000000
0000000000000000000000000000000000000000011000000000000000000000000000
000000000000000000000011111100